PathFileType	4	(X/Y/Z)	Kaydara																																																																																																																									
DataRate	CameraRate	NumFrames	NumMarkers	Units	OrigDataRate	OrigDataStartFrame	OrigNumFrames																																																																																																																					
30	30	4	41	mm	30	306	349																																																																																																																					
Frame#	Time	EMLA_LFHD			EMLA_RFHD			EMLA_LBHD			EMLA_RBHD			EMLA_LFTShould			EMLA_RFTShould			EMLA_LRRShould			EMLA_RRRShould			EMLA_T10			EMLA_STRN			EMLA_TRUN			EMLA_LSHO			EMLA_LUPA			EMLA_LELB			EMLA_LFRM			EMLA_LWRA			EMLA_LWRB			EMLA_LFIN			EMLA_RSHO			EMLA_RUPA			EMLA_RELB			EMLA_RFRM			EMLA_RWRA			EMLA_RWRB			EMLA_RFIN			EMLA_LFWT			EMLA_RFWT			EMLA_LBWT			EMLA_RBWT			EMLA_LTHI			EMLA_LKNE			EMLA_LSHN			EMLA_LANK			EMLA_LHEE			EMLA_LTOE			EMLA_RTHI			EMLA_RKNE			EMLA_RSHN			EMLA_RANK			EMLA_RHEE			EMLA_RTOE		
		X1	Y1	Z1	X2	Y2	Z2	X3	Y3	Z3	X4	Y4	Z4	X5	Y5	Z5	X6	Y6	Z6	X7	Y7	Z7	X8	Y8	Z8	X9	Y9	Z9	X10	Y10	Z10	X11	Y11	Z11	X12	Y12	Z12	X13	Y13	Z13	X14	Y14	Z14	X15	Y15	Z15	X16	Y16	Z16	X17	Y17	Z17	X18	Y18	Z18	X19	Y19	Z19	X20	Y20	Z20	X21	Y21	Z21	X22	Y22	Z22	X23	Y23	Z23	X24	Y24	Z24	X25	Y25	Z25	X26	Y26	Z26	X27	Y27	Z27	X28	Y28	Z28	X29	Y29	Z29	X30	Y30	Z30	X31	Y31	Z31	X32	Y32	Z32	X33	Y33	Z33	X34	Y34	Z34	X35	Y35	Z35	X36	Y36	Z36	X37	Y37	Z37	X38	Y38	Z38	X39	Y39	Z39	X40	Y40	Z40	X41	Y41	Z41
																																																																																																																												
306	10.177	289.8204	1462.05307	1913.6084	119.58951	1459.74335	1900.53024	309.68143	1567.16446	1807.1196	115.64498	1567.68097	1792.81693	299.19037	1340.64407	1757.42996	148.85204	1330.44373	1760.92499	284.02771	1406.27167	1617.285	130.89685	1398.73337	1622.58621	218.38451	1234.98222	1555.42175	222.65482	1269.58313	1792.36908	216.34563	1165.3553	1804.09729	422.21645	1372.73636	1695.83466	479.19785	1195.62447	1645.96786	497.30316	1056.64749	1619.84848	501.91013	921.884	1605.56351	438.04955	762.80525	1676.39252	485.34306	756.29433	1605.01038	489.30939	713.78647	1659.53445	22.43747	1372.21649	1700.18784	-34.34896	1178.9975	1668.89099	-48.1983	1042.127	1628.26309	-51.6444	944.07112	1604.71756	14.77697	763.94142	1672.38403	-36.74856	761.6523	1601.78833	-45.54115	719.5446	1649.897	309.10408	946.77101	1787.34375	77.66681	926.62392	1754.93179	310.73256	961.1821	1584.78989	133.44962	966.7067	1575.62729	357.25105	662.59995	1673.53958	353.1004	478.50574	1773.97385	324.72752	307.38266	1830.66986	329.3092	119.20748	1812.44049	260.98604	37.71324	1767.13486	291.39336	35.62042	1966.50864	110.64924	693.19313	1523.04337	70.46408	484.63791	1534.52377	123.77621	269.97015	1472.07306	96.422	142.40763	1344.13101	155.38312	117.20475	1278.28064	129.51181	34.60594	1455.12756
307	10.21	299.25085	1466.3028	1936.17142	128.12761	1466.02768	1925.09262	319.66852	1570.32303	1828.70636	125.48447	1573.13324	1815.67734	306.16299	1344.20319	1781.53229	155.80722	1335.29053	1784.33258	292.50645	1409.40475	1641.00967	138.99321	1403.01849	1645.58731	226.01513	1238.66165	1578.99155	229.15045	1273.81004	1816.20544	222.32521	1169.53293	1827.99271	429.79328	1375.35019	1720.81635	486.17424	1197.24205	1675.04745	503.95927	1057.59338	1651.01318	509.46003	923.4787	1637.72385	444.4976	764.21364	1707.59995	493.47557	757.82646	1637.40173	496.14555	715.38033	1692.09564	30.37855	1378.14362	1722.68097	-28.90775	1186.77795	1688.06168	-43.7896	1050.74265	1644.42291	-47.09023	952.1228	1620.63629	17.60955	772.27989	1691.04889	-31.47632	769.45305	1618.43857	-42.06019	727.57286	1666.35605	315.34466	951.19507	1812.28912	83.9915	930.24185	1777.51495	318.58816	965.54222	1609.87976	141.96172	969.82643	1599.02115	363.52036	666.82007	1691.71158	358.23383	479.79156	1785.34622	328.37357	306.89793	1837.276	329.87629	119.10094	1812.32208	261.34451	37.78936	1767.05109	290.76696	35.23659	1966.49841	117.13522	693.24738	1549.04205	70.32186	485.99926	1563.20145	122.34819	273.15176	1491.78802	95.76586	152.63225	1356.90643	155.86218	131.66788	1291.3147	129.74757	33.95566	1458.16833
308	10.243	308.529	1470.07721	1957.51114	137.26403	1471.61636	1947.82761	329.268	1572.83264	1848.7973	134.93293	1577.79388	1837.44461	312.8779	1347.28119	1804.85565	162.51108	1339.26331	1806.75385	300.75806	1411.66489	1663.95905	147.24733	1406.35239	1667.52213	234.05146	1241.24763	1601.80756	235.28715	1277.37137	1839.23218	227.98143	1173.10776	1851.14517	437.07684	1377.74033	1744.95758	493.25264	1198.53821	1702.80228	510.08247	1058.37555	1681.94244	516.26614	924.41757	1670.91049	451.19553	765.75073	1742.32147	500.78239	758.74619	1672.82257	503.35152	717.117	1728.19489	38.18663	1382.94113	1744.18488	-23.36508	1193.15453	1708.5704	-39.66363	1057.63527	1662.84348	-42.94906	958.25478	1638.65173	21.51634	779.40269	1711.5683	-26.61972	775.55298	1638.35037	-37.64801	734.07082	1686.64688	321.41037	954.09607	1836.68243	90.01878	932.85812	1799.22012	326.36295	969.08546	1634.53506	150.38599	972.33604	1621.39221	368.78204	670.18974	1707.54318	361.52756	480.08678	1795.53406	330.19215	306.3588	1843.73672	330.65029	119.09606	1814.71359	261.60839	38.25902	1767.08389	290.34298	34.98749	1966.58157	124.15992	690.44167	1577.25616	67.60802	486.68846	1592.93365	118.75123	275.26266	1513.82095	95.23619	162.57748	1371.77322	156.84742	146.30917	1307.53113	130.31746	32.90689	1461.26831
309	10.277	317.30766	1472.7887	1977.66739	145.99205	1476.22299	1969.39789	338.36395	1574.17313	1867.67487	143.85564	1581.31485	1857.95364	319.02798	1349.00909	1827.22137	168.8456	1341.81519	1827.93564	308.84064	1412.40982	1685.7608	155.55043	1408.27957	1687.98676	242.20478	1242.41821	1623.98666	240.99924	1279.53232	1861.20804	233.26506	1175.33463	1873.33969	444.04648	1379.03107	1768.53149	500.23003	1198.62411	1731.01486	516.40812	1058.02528	1712.96173	522.61112	923.92738	1705.01236	457.39323	767.07947	1780.15503	507.10045	758.34068	1710.92224	509.85722	718.25134	1767.45926	45.63007	1386.18118	1763.97339	-17.696	1197.49283	1728.99048	-35.22816	1062.11349	1682.89307	-38.6953	962.17232	1658.87146	25.81261	784.23058	1733.59528	-22.28796	779.27284	1660.50659	-33.15607	738.46405	1709.42047	327.63367	955.63728	1859.61929	96.52849	933.89503	1820.18845	333.64082	971.40411	1657.36542	157.90604	973.09807	1642.9126	374.9025	673.16475	1723.77106	366.20136	480.20824	1805.43472	333.2782	305.52242	1849.20868	331.53728	119.00546	1816.00632	262.32029	38.82445	1766.88507	290.30138	34.79001	1966.65695	130.50366	685.06851	1606.58508	63.31062	486.14082	1624.52255	114.38512	276.41256	1537.25189	93.85473	172.38506	1388.57346	157.03569	161.42235	1325.84213	129.98384	31.76877	1464.29565
